<svg t="1575597978367" class="icon" viewBox="0 0 1024 1024" version="1.1" xmlns="http://www.w3.org/2000/svg" p-id="2121" width="200" height="200"><path d="M835.87 198.926c-40.523-41.238-88.412-73.983-142.442-97.212-56.178-24.251-117.268-37.35-181.53-39.191-122.385 0-236.584 47.685-321.311 134.254-40.522 41.443-72.449 89.538-94.654 143.056-22.717 54.745-34.28 112.56-34.28 171.707 0 98.235 31.517 191.763 91.174 270.76l71.937 75.928c39.499 32.745 83.91 58.225 131.8 75.928 49.628 18.214 101.918 27.526 155.334 27.526 53.722 0 106.217-9.414 156.05-27.833 48.095-17.805 92.608-43.592 132.209-76.747l71.834-76.234c58.941-78.69 90.05-171.707 90.05-269.226 0.204-118.803-44.616-229.83-126.172-312.716z m11.46 455.464c-18.317 43.285-44.615 82.272-77.974 115.631-33.462 33.461-72.346 59.657-115.631 77.974-44.82 18.931-92.505 28.55-141.623 28.55s-96.802-9.619-141.622-28.55c-43.285-18.317-82.272-44.615-115.631-77.974-33.462-33.461-59.658-72.346-77.974-115.631-18.931-44.82-28.55-92.505-28.55-141.623s9.619-96.802 28.55-141.622c18.316-43.285 44.615-82.272 77.974-115.631 33.461-33.461 72.346-59.658 115.63-77.974 44.82-18.931 92.506-28.55 141.623-28.55s96.803 9.619 141.623 28.55c43.285 18.316 82.272 44.615 115.63 77.974 33.462 33.461 59.658 72.346 77.975 115.631 18.93 44.82 28.55 92.505 28.55 141.622 0 49.016-9.62 96.7-28.55 141.623z" fill="#F9A123" p-id="2122"></path><path d="M518.651 638.12c-15.042 0-30.084 6.242-40.726 16.884s-16.885 25.684-16.885 40.727 6.243 30.084 16.885 40.726c10.642 10.642 25.684 16.884 40.726 16.884 15.145 0 30.085-6.242 40.727-16.884 10.642-10.642 16.884-25.684 16.884-40.726s-6.242-30.085-16.884-40.727c-10.54-10.642-25.582-16.884-40.727-16.884z m-6.14-374.624c-40.93 0-73.88 12.279-99.053 36.94-25.173 24.661-39.806 58.532-40.625 89.844-0.818 31.21 66.207 24.764 68.663 9.312 2.66-16.372 13.61-42.773 26.4-54.745 12.792-11.973 28.755-18.01 47.788-18.01 19.75 0 35.508 5.73 47.07 17.191 11.666 11.46 17.499 25.275 17.499 41.443 0 11.665-3.274 22.205-9.824 31.926-4.297 6.14-17.395 19.033-39.191 38.68-21.694 19.75-36.327 37.453-43.592 53.211-7.265 15.759-10.95 35.815-10.95 60.272 0 2.353 0.103 9.005 0.308 19.75h67.946c-0.41-22.82 1.432-38.681 5.218-47.584 3.787-8.902 13.61-20.568 29.369-35.098 30.494-28.14 50.448-50.448 59.76-66.718 9.311-16.373 13.916-33.666 13.916-51.983 0-33.052-12.689-62.113-38.066-86.98-25.48-24.967-59.657-37.451-102.635-37.451z" fill="#F9A123" p-id="2123"></path></svg>